<?xml version="1.0" encoding="UTF-8" standalone="no"?>
<!-- Created with Inkscape (http://www.inkscape.org/) -->

<svg
   xmlns:dc="http://purl.org/dc/elements/1.1/"
   xmlns:cc="http://creativecommons.org/ns#"
   xmlns:rdf="http://www.w3.org/1999/02/22-rdf-syntax-ns#"
   xmlns:svg="http://www.w3.org/2000/svg"
   xmlns="http://www.w3.org/2000/svg"
   xmlns:sodipodi="http://sodipodi.sourceforge.net/DTD/sodipodi-0.dtd"
   xmlns:inkscape="http://www.inkscape.org/namespaces/inkscape"
   width="240mm"
   height="120mm"
   viewBox="0 0 240 120"
   version="1.1"
   id="svg8"
   inkscape:version="0.92.4 (unknown)"
   sodipodi:docname="truncation.svg">
  <defs
     id="defs2">
    <inkscape:path-effect
       effect="spiro"
       id="path-effect848"
       is_visible="true" />
    <inkscape:path-effect
       effect="spiro"
       id="path-effect832"
       is_visible="true" />
    <inkscape:path-effect
       effect="spiro"
       id="path-effect828"
       is_visible="true" />
    <inkscape:path-effect
       effect="spiro"
       id="path-effect824"
       is_visible="true" />
  </defs>
  <sodipodi:namedview
     id="base"
     pagecolor="#ffffff"
     bordercolor="#666666"
     borderopacity="1.0"
     inkscape:pageopacity="0.0"
     inkscape:pageshadow="2"
     inkscape:zoom="0.99437388"
     inkscape:cx="126.38797"
     inkscape:cy="182.72055"
     inkscape:document-units="mm"
     inkscape:current-layer="layer1"
     showgrid="false"
     showborder="true"
     width="200mm"
     showguides="true"
     inkscape:guide-bbox="true"
     inkscape:window-width="1853"
     inkscape:window-height="1025"
     inkscape:window-x="67"
     inkscape:window-y="27"
     inkscape:window-maximized="1">
    <inkscape:grid
       type="xygrid"
       id="grid815"
       units="mm"
       spacingx="10"
       spacingy="10"
       empspacing="4"
       dotted="false" />
  </sodipodi:namedview>
  <metadata
     id="metadata5">
    <rdf:RDF>
      <cc:Work
         rdf:about="">
        <dc:format>image/svg+xml</dc:format>
        <dc:type
           rdf:resource="http://purl.org/dc/dcmitype/StillImage" />
        <dc:title />
      </cc:Work>
    </rdf:RDF>
  </metadata>
  <g
     inkscape:label="Layer 1"
     inkscape:groupmode="layer"
     id="layer1"
     transform="translate(0,-177)">
    <path
       style="fill:none;stroke:#000000;stroke-width:0.265;stroke-linecap:butt;stroke-linejoin:miter;stroke-opacity:1;stroke-miterlimit:4;stroke-dasharray:none"
       d="m 56.409031,243.78393 c 1.375631,0.28812 2.717833,0.73552 3.991205,1.33041 0.612685,0.28623 1.213601,0.60807 1.862561,0.79824 0.702789,0.20594 1.451175,0.25402 2.128642,0.53216 0.550956,0.2262 1.035797,0.59736 1.596482,0.79824 0.426561,0.15282 0.881889,0.2017 1.330402,0.26608 1.242479,0.17836 2.47083,0.48409 3.725124,0.53216 0.620443,0.0238 1.241666,0 1.862564,0 h 1.86256 c 0.709763,0 1.421121,-0.0563 2.128645,0 0.625422,0.0498 1.237139,0.21628 1.862561,0.26608 0.707523,0.0563 1.418881,0 2.128644,0 h 7.184168 4.257286 c 0.31075,0 0.621438,-0.008 0.931941,-0.02 0.310504,-0.0124 0.623239,-0.0256 0.930622,0.02 0.639943,0.095 1.221171,0.4475 1.862561,0.53216 0.52802,0.0697 1.063882,0 1.596482,0 h 1.330402 c 0.443627,0 0.888453,-0.0386 1.330397,0 0.45088,0.0394 0.88519,0.1847 1.33041,0.26608 0.87778,0.16044 1.79004,0.0711 2.6608,0.26608 0.27417,0.0614 0.54207,0.15069 0.79824,0.26608 0.26099,0.31384 0.65666,0.51167 1.06432,0.53216 0.26622,0.0134 0.53551,-0.045 0.79824,0 0.19832,0.034 0.38599,0.12781 0.53216,0.26608 0.33328,0.15596 0.69686,0.24686 1.06432,0.26608 0.26575,0.0139 0.53213,0 0.79825,0 h 2.12864 1.59648 0.79824 c 0.0446,0 0.0891,0.002 0.13349,0.006 0.0444,0.004 0.0903,0.008 0.13259,-0.006 0.0302,-0.01 0.0568,-0.0291 0.0793,-0.0517 0.0225,-0.0226 0.0411,-0.0486 0.059,-0.075 0.0179,-0.0263 0.0353,-0.0531 0.0557,-0.0776 0.0204,-0.0245 0.0441,-0.0467 0.0721,-0.0618 0.04,-0.0216 0.0869,-0.0276 0.13224,-0.0248 0.0454,0.003 0.0897,0.0139 0.13384,0.0248 0.0881,0.0218 0.17691,0.0431 0.26751,0.0483 0.0906,0.005 0.18398,-0.007 0.26465,-0.0483 0.0723,-0.0372 0.13136,-0.0968 0.17762,-0.16366 0.0463,-0.0669 0.0805,-0.14126 0.11212,-0.21618 0.0316,-0.0749 0.0609,-0.15099 0.0983,-0.2232 0.0374,-0.0722 0.0835,-0.14099 0.14408,-0.1952 0.10563,-0.0945 0.24695,-0.13774 0.38572,-0.16645 0.13877,-0.0287 0.28136,-0.046 0.41252,-0.0996 0.23456,-0.096 0.40783,-0.29739 0.55997,-0.50007 0.15213,-0.20269 0.29716,-0.41831 0.50435,-0.56425 0.16239,-0.11439 0.3536,-0.17908 0.53217,-0.26608 0.17843,-0.0869 0.34606,-0.1971 0.53216,-0.26608 0.13205,-0.0489 0.27091,-0.0762 0.40738,-0.11097 0.13647,-0.0348 0.27297,-0.0781 0.39086,-0.15511 0.18712,-0.12227 0.31158,-0.31835 0.42146,-0.51301 0.10987,-0.19466 0.21407,-0.39805 0.37678,-0.55131 0.17785,-0.16752 0.42088,-0.26396 0.6652,-0.26396 0.24432,0 0.48735,0.0964 0.6652,0.26396"
       id="path822"
       inkscape:connector-curvature="0"
       inkscape:path-effect="#path-effect824"
       inkscape:original-d="m 56.409031,243.78393 c 4.784529,2.05052 -1.228691,-0.40956 3.991205,1.33041 0.640805,0.2136 1.221756,0.58463 1.862561,0.79824 0.693854,0.23128 1.439868,0.28617 2.128642,0.53216 0.560313,0.20011 1.03733,0.59491 1.596482,0.79824 0.425022,0.15455 0.885447,0.18518 1.330402,0.26608 0.980779,0.17832 2.812097,0.47129 3.725124,0.53216 0.61948,0.0413 1.241708,0 1.862564,0 0.620852,0 1.241708,0 1.86256,0 0.709549,0 1.420667,-0.0472 2.128645,0 0.625768,0.0417 1.236795,0.22436 1.862561,0.26608 0.707977,0.0472 1.419095,0 2.128644,0 2.394722,0 4.789445,0 7.184168,0 1.419095,0 2.83819,0 4.257286,0 0.620852,0 1.247947,-0.0878 1.862563,0 0.639207,0.0913 1.224373,0.43398 1.862561,0.53216 0.525973,0.0809 1.064321,0 1.596482,0 0.443469,0 0.886934,0 1.330402,0 0.443466,0 0.889135,-0.0441 1.330397,0 0.45001,0.045 0.8804,0.22108 1.33041,0.26608 2.39409,0.23941 0.27199,-0.33112 2.6608,0.26608 0.2721,0.068 0.53216,0.17739 0.79824,0.26608 0.35477,0.17739 0.68293,0.42319 1.06432,0.53216 0.25584,0.0731 0.53733,-0.0522 0.79824,0 0.19447,0.0389 0.33769,0.22719 0.53216,0.26608 1.88724,0 0.15587,-0.18815 1.06432,0.26608 0.081,0.0405 0.67841,0 0.79825,0 0.70954,0 1.41909,0 2.12864,0 0.53216,0 1.06432,0 1.59648,0 0.26608,0 0.53216,0 0.79824,0 0.0887,0 0.18675,0.0397 0.26608,0 0.11219,-0.0561 0.15389,-0.20998 0.26608,-0.26608 0.0793,-0.0397 0.17739,0 0.26608,0 0.17739,0 0.36388,0.0561 0.53216,0 0.3675,-0.1225 0.27137,-0.60265 0.53216,-0.79824 0.22438,-0.16828 0.54738,-0.14065 0.79824,-0.26608 0.16133,-0.0807 0.95037,-0.97885 1.06432,-1.06432 0.15866,-0.119 0.35478,-0.17739 0.53217,-0.26608 0.17738,-0.0887 0.34802,-0.19243 0.53216,-0.26608 0.26041,-0.10417 0.54738,-0.14065 0.79824,-0.26608 0.4137,-0.20685 0.39269,-0.92914 0.79824,-1.06432 0.15136,-0.0505 1.0798,0 1.3304,0" />
    <path
       style="fill:none;stroke:#000000;stroke-width:0.26458332px;stroke-linecap:butt;stroke-linejoin:miter;stroke-opacity:1"
       d="m 56.409031,243.78393 c 0.48051,-0.18853 0.875793,-0.58381 1.064321,-1.06432 0.133705,-0.34078 0.165251,-0.71241 0.266081,-1.06432 0.07728,-0.26971 0.194991,-0.52683 0.266078,-0.79824 0.09291,-0.35473 0.106558,-0.73414 0.266081,-1.06432 0.113746,-0.23543 0.294544,-0.43032 0.4564,-0.63566 0.161856,-0.20535 0.310889,-0.43511 0.341842,-0.69474 0.02101,-0.17626 0,-0.35466 0,-0.53217 v -1.3304 -1.3304 c 0,-0.0889 0.0032,-0.17775 0.0084,-0.26649 0.0052,-0.0887 0.01069,-0.17885 -0.0084,-0.26567 -0.02061,-0.0937 -0.07028,-0.17942 -0.132989,-0.25209 -0.06271,-0.0727 -0.138273,-0.13318 -0.216537,-0.18876 -0.156528,-0.11115 -0.328988,-0.20732 -0.448716,-0.35739 -0.118116,-0.14805 -0.174506,-0.33732 -0.194822,-0.52562 -0.02032,-0.1883 -0.0072,-0.37835 -5.54e-4,-0.56763 0.0066,-0.18928 0.0064,-0.38116 -0.03979,-0.56485 -0.04617,-0.18368 -0.142827,-0.36052 -0.29699,-0.47054 -0.134983,-0.0963 -0.301627,-0.13438 -0.454477,-0.1987 -0.07643,-0.0322 -0.150686,-0.0717 -0.212845,-0.12658 -0.06216,-0.0549 -0.111844,-0.12619 -0.130921,-0.20688 -0.02049,-0.0867 -0.0049,-0.17715 0,-0.26608 0.01588,-0.28656 -0.08431,-0.57614 -0.266081,-0.79824 -0.07952,-0.0972 -0.173374,-0.18142 -0.266078,-0.26609 -0.370615,-0.3385 -0.729391,-0.69047 -1.064323,-1.06432 -0.08382,-0.0936 -0.166805,-0.18911 -0.266079,-0.26608 -0.0504,-0.0391 -0.104691,-0.0731 -0.153275,-0.11442 -0.04858,-0.0413 -0.09209,-0.0914 -0.112806,-0.15166 -0.01463,-0.0426 -0.01726,-0.0885 -0.01387,-0.13346 0.0034,-0.0449 0.01264,-0.0891 0.02125,-0.13334 0.0086,-0.0442 0.01663,-0.0888 0.01752,-0.13379 8.9e-4,-0.045 -0.0056,-0.0909 -0.0249,-0.13157 -0.02183,-0.0461 -0.05921,-0.0837 -0.102009,-0.1114 -0.0428,-0.0277 -0.09098,-0.0462 -0.139877,-0.0607 -0.09779,-0.029 -0.201555,-0.0436 -0.290275,-0.094 -0.109723,-0.0623 -0.183053,-0.1711 -0.266081,-0.26608 -0.108367,-0.12396 -0.237905,-0.22821 -0.344811,-0.35344 -0.05345,-0.0626 -0.10126,-0.13067 -0.135457,-0.20556 -0.0342,-0.0749 -0.05449,-0.15695 -0.05189,-0.23924 0.0014,-0.0447 0.0095,-0.089 0.01319,-0.13359 0.0037,-0.0446 0.0027,-0.0907 -0.01319,-0.13249 -0.01827,-0.048 -0.05536,-0.0872 -0.09856,-0.11487 -0.0432,-0.0277 -0.09239,-0.0447 -0.142067,-0.0576 -0.09935,-0.0258 -0.20576,-0.0372 -0.291536,-0.0936 -0.07959,-0.0523 -0.132513,-0.13935 -0.155561,-0.23175 -0.02305,-0.0924 -0.01824,-0.18995 1.51e-4,-0.28338 0.03677,-0.18688 0.126372,-0.36095 0.15541,-0.54919 0.03427,-0.22217 -0.01784,-0.44716 -0.05232,-0.66929 -0.01724,-0.11107 -0.03014,-0.22337 -0.02556,-0.33568 0.0046,-0.1123 0.02719,-0.22511 0.07788,-0.32543 0.08562,-0.16946 0.242656,-0.28957 0.395439,-0.40229 0.152783,-0.11271 0.311408,-0.22953 0.402804,-0.39595 0.06793,-0.12369 0.09332,-0.26543 0.121761,-0.40365 0.02844,-0.13822 0.06259,-0.27956 0.144317,-0.3946 0.07278,-0.10244 0.177968,-0.17648 0.266081,-0.26607 0.224772,-0.22854 0.33061,-0.54899 0.532161,-0.79825 0.118706,-0.1468 0.267771,-0.26543 0.411922,-0.38735 0.14415,-0.12191 0.286551,-0.25061 0.386318,-0.41089 0.09876,-0.15867 0.152095,-0.34527 0.152095,-0.53216 0,-0.18689 -0.05333,-0.37349 -0.152095,-0.53216"
       id="path826"
       inkscape:connector-curvature="0"
       inkscape:path-effect="#path-effect828"
       inkscape:original-d="m 56.409031,243.78393 c 0.354772,-0.35477 0.798407,-0.63886 1.064321,-1.06432 0.193815,-0.3101 0.165616,-0.7127 0.266081,-1.06432 0.07705,-0.26968 0.189026,-0.52856 0.266078,-0.79824 0.100465,-0.35162 0.150439,-0.7174 0.266081,-1.06432 0.387421,-1.16227 0.191016,0.18766 0.798242,-1.3304 0.06588,-0.1647 0,-0.35478 0,-0.53217 0,-0.44346 0,-0.88693 0,-1.3304 0,-0.44346 0,-0.88693 0,-1.3304 0,-0.17739 0.07933,-0.3735 0,-0.53216 -0.168285,-0.33657 -0.629957,-0.46167 -0.798242,-0.79824 -0.44146,-0.88292 -0.0907,-1.24572 -0.532159,-2.12864 -0.203764,-0.40752 -0.47416,-0.20808 -0.798243,-0.53216 -0.06271,-0.0627 0.02151,-0.18004 0,-0.26608 -0.06802,-0.2721 -0.140647,-0.54738 -0.266081,-0.79824 -0.05609,-0.11219 -0.177384,-0.17739 -0.266078,-0.26609 -0.354774,-0.35477 -0.709549,-0.70954 -1.064323,-1.06432 -0.08869,-0.0887 -0.177385,-0.17738 -0.266079,-0.26608 -0.08869,-0.0887 -0.226417,-0.14708 -0.266081,-0.26608 -0.05609,-0.16828 0.0984,-0.38456 0,-0.53216 -0.110011,-0.16501 -0.367146,-0.15607 -0.532161,-0.26608 -0.104365,-0.0696 -0.177388,-0.17739 -0.266081,-0.26608 -0.304435,-0.30443 -0.371073,-0.31498 -0.532159,-0.79824 -0.02805,-0.0841 0.06271,-0.20336 0,-0.26608 -0.140237,-0.14024 -0.391925,-0.12584 -0.532162,-0.26608 -0.03287,-0.0329 0,-0.89746 0,-1.06432 0,-0.22298 -0.05654,-1.21731 0,-1.3304 0.168286,-0.33657 0.629957,-0.46167 0.798243,-0.79824 0.125431,-0.25087 0.140647,-0.54738 0.266078,-0.79825 0.0561,-0.11218 0.190823,-0.16573 0.266081,-0.26607 0.191873,-0.25583 0.340288,-0.54242 0.532161,-0.79825 0.113276,-0.15103 0.758288,-0.67838 0.79824,-0.79824 0.04768,-0.14304 0,-0.83904 0,-1.06432" />
    <path
       style="fill:none;stroke:#000000;stroke-width:0.26458332px;stroke-linecap:butt;stroke-linejoin:miter;stroke-opacity:1"
       d="m 121.59871,246.44474 c 0.32772,-0.66023 0.51063,-1.39187 0.53216,-2.12865 0.008,-0.26598 0,-0.53215 0,-0.79824 v -1.86256 -3.99121 -1.86256 -0.79824 c 0,-0.0891 0.005,-0.17811 0.0119,-0.2669 0.007,-0.0888 0.015,-0.18032 -0.0119,-0.26526 -0.0192,-0.0607 -0.0559,-0.11476 -0.0998,-0.16086 -0.0439,-0.0461 -0.0949,-0.0847 -0.14698,-0.12142 -0.10405,-0.0734 -0.21626,-0.14296 -0.28537,-0.24988 -0.0491,-0.076 -0.0729,-0.16649 -0.0789,-0.25682 -0.006,-0.0903 0.005,-0.18097 0.0207,-0.27011 0.0316,-0.17828 0.0828,-0.35802 0.0582,-0.53739 -0.0192,-0.13977 -0.0832,-0.26869 -0.14325,-0.39637 -0.06,-0.12768 -0.11777,-0.26089 -0.12283,-0.40187 -0.003,-0.0888 0.0147,-0.17846 0,-0.26608 -0.0166,-0.0985 -0.0727,-0.18521 -0.12883,-0.26784 -0.0561,-0.0826 -0.11469,-0.16702 -0.13725,-0.26432 -0.0201,-0.0869 -0.01,-0.17751 1.6e-4,-0.26609 0.0102,-0.0886 0.0202,-0.17926 -1.6e-4,-0.26607 -0.0228,-0.0973 -0.0817,-0.18146 -0.13794,-0.26403 -0.0562,-0.0826 -0.11233,-0.16948 -0.12814,-0.26813 -0.0141,-0.0877 0.005,-0.17739 0,-0.26609 -0.008,-0.14132 -0.0762,-0.27116 -0.14062,-0.39722 -0.0644,-0.12605 -0.12793,-0.25949 -0.12546,-0.40102 7.8e-4,-0.0447 0.008,-0.089 0.0117,-0.1335 0.003,-0.0445 0.003,-0.0904 -0.0117,-0.13258 -0.0169,-0.0488 -0.0519,-0.09 -0.0938,-0.1202 -0.0419,-0.0302 -0.0904,-0.05 -0.13995,-0.0646 -0.0991,-0.0291 -0.20447,-0.0384 -0.2984,-0.0813 -0.13393,-0.0612 -0.23164,-0.18758 -0.27747,-0.32751 -0.0458,-0.13993 -0.0436,-0.29218 -0.0151,-0.43664 0.0569,-0.28893 0.2136,-0.54864 0.29259,-0.83233 0.0484,-0.17394 0.0661,-0.36413 0,-0.53216 -0.0366,-0.093 -0.0968,-0.17436 -0.15097,-0.25832 -0.0542,-0.084 -0.10389,-0.17454 -0.11511,-0.27384 -0.0114,-0.10056 0.0179,-0.20152 0.0576,-0.2946 0.0397,-0.0931 0.0902,-0.18154 0.12491,-0.27659 0.0347,-0.095 0.0532,-0.20002 0.0261,-0.29752 -0.0135,-0.0488 -0.0386,-0.0947 -0.0747,-0.13015 -0.0361,-0.0354 -0.0836,-0.0599 -0.13385,-0.0655 -0.0446,-0.005 -0.0893,0.005 -0.13379,0.0108 -0.0445,0.006 -0.0916,0.008 -0.13229,-0.0108 -0.022,-0.0102 -0.0411,-0.0263 -0.0558,-0.0456 -0.0147,-0.0193 -0.0251,-0.0417 -0.0314,-0.0651 -0.0126,-0.0468 -0.009,-0.0968 0.002,-0.14391 0.0225,-0.0943 0.0742,-0.18121 0.0847,-0.2776 0.008,-0.071 -0.008,-0.143 -0.0338,-0.20947 -0.0261,-0.0665 -0.0628,-0.12822 -0.0992,-0.18964 -0.0365,-0.0614 -0.0731,-0.12318 -0.0992,-0.18965 -0.0261,-0.0665 -0.0415,-0.13847 -0.0338,-0.20948 0.005,-0.0454 0.0192,-0.0894 0.025,-0.13473 0.003,-0.0227 0.004,-0.0457 1.6e-4,-0.0683 -0.004,-0.0226 -0.0116,-0.0447 -0.0252,-0.063 -0.014,-0.0189 -0.0336,-0.0334 -0.0552,-0.0427 -0.0216,-0.009 -0.0453,-0.0135 -0.0688,-0.0138 -0.0471,-6.6e-4 -0.093,0.0138 -0.13709,0.0304 -0.0441,0.0165 -0.0877,0.0354 -0.13401,0.044 -0.0463,0.009 -0.0965,0.006 -0.13703,-0.0179 -0.0321,-0.0191 -0.0559,-0.0507 -0.0685,-0.0858 -0.0127,-0.0351 -0.0148,-0.0735 -0.009,-0.11048 0.0106,-0.0739 0.0491,-0.1404 0.0862,-0.2052 0.0371,-0.0648 0.0743,-0.13238 0.0817,-0.20669 0.004,-0.0371 -4.3e-4,-0.0755 -0.0153,-0.10972 -0.0149,-0.0342 -0.041,-0.0641 -0.0746,-0.0803 -0.0404,-0.0196 -0.0877,-0.0183 -0.13221,-0.0125 -0.0445,0.006 -0.0891,0.0159 -0.13387,0.0125 -0.0632,-0.005 -0.12298,-0.0369 -0.16575,-0.0837 -0.0428,-0.0468 -0.0691,-0.10734 -0.0795,-0.16987 -0.0208,-0.12507 0.0202,-0.25244 0.0755,-0.36656 0.0552,-0.11413 0.12527,-0.22144 0.16879,-0.34052 0.0218,-0.0595 0.0367,-0.12201 0.0387,-0.18537 0.002,-0.0634 -0.009,-0.12775 -0.0378,-0.18439 -0.0284,-0.0565 -0.0726,-0.10343 -0.12018,-0.14506 -0.0475,-0.0416 -0.0989,-0.0788 -0.1459,-0.12102 -0.18598,-0.16712 -0.29657,-0.41516 -0.29657,-0.6652 0,-0.25004 0.11059,-0.49808 0.29657,-0.6652"
       id="path830"
       inkscape:connector-curvature="0"
       inkscape:path-effect="#path-effect832"
       inkscape:original-d="m 121.59871,246.44474 c 0.17739,-0.70955 0.40133,-1.40906 0.53216,-2.12865 0.0476,-0.26178 0,-0.53216 0,-0.79824 0,-0.62085 0,-1.24171 0,-1.86256 0,-1.3304 0,-2.6608 0,-3.99121 0,-0.62085 0,-1.2417 0,-1.86256 0,-0.26608 0,-0.53216 0,-0.79824 0,-0.17738 0.0793,-0.3735 0,-0.53216 -0.11219,-0.22438 -0.41997,-0.30778 -0.53216,-0.53216 -0.0219,-0.0438 0.0206,-0.96126 0,-1.06432 -0.055,-0.27503 -0.19805,-0.52614 -0.26608,-0.79824 -0.0215,-0.0861 0.0281,-0.18194 0,-0.26608 -0.0627,-0.18815 -0.21798,-0.33976 -0.26608,-0.53216 -0.043,-0.17209 0.043,-0.36007 0,-0.53216 -0.0481,-0.19241 -0.20336,-0.34402 -0.26608,-0.53216 -0.0281,-0.0841 0.0215,-0.18004 0,-0.26609 -0.068,-0.27209 -0.19806,-0.52614 -0.26608,-0.79824 -0.0215,-0.086 0.0627,-0.20336 0,-0.26608 -0.14024,-0.14023 -0.44347,-0.0887 -0.53216,-0.26608 -0.05,-0.1 0,-1.3067 0,-1.59648 0,-0.17738 0.0561,-0.36388 0,-0.53216 -0.3288,-0.98639 -0.26608,0.32434 -0.26608,-0.53216 0,-0.16685 0.0329,-1.03145 0,-1.06432 -0.0627,-0.0627 -0.20337,0.0627 -0.26608,0 -0.12543,-0.12543 0.0561,-0.36388 0,-0.53216 -0.30575,-0.91724 -0.26608,-0.1971 -0.26608,-0.79824 0,-0.0887 0.0793,-0.22642 0,-0.26608 -0.15866,-0.0793 -0.3735,0.0793 -0.53216,0 -0.10527,-0.0526 0.13235,-0.53354 0,-0.79824 -0.0397,-0.0793 -0.20337,0.0627 -0.26608,0 -0.0274,-0.0274 0.0221,-1.26407 0,-1.33041 -0.0397,-0.11899 -0.20999,-0.15389 -0.26608,-0.26608 -0.0568,-0.11364 0,-1.22521 0,-1.3304" />
    <path
       style="fill:none;stroke:#000000;stroke-width:0.26458332px;stroke-linecap:butt;stroke-linejoin:miter;stroke-opacity:1"
       d="m 55.610788,219.03846 c 0.375672,0.36186 0.834326,0.63705 1.330402,0.79824 0.766419,0.24903 1.590013,0.22302 2.394723,0.26608 1.155243,0.0618 2.30216,0.27092 3.459046,0.26608 0.79924,-0.003 1.602896,-0.10866 2.394722,0 0.725128,0.0995 1.413766,0.37511 2.128642,0.53216 0.871545,0.19147 1.770595,0.2046 2.660803,0.26608 0.977362,0.0675 1.949848,0.19405 2.926885,0.26609 1.241861,0.0916 2.491681,0.0951 3.725124,0.26608 1.604646,0.22239 3.171046,0.72662 4.789445,0.79824 0.708921,0.0314 1.419029,0 2.128644,0 h 2.394723 c 0.798339,0 1.59741,-0.0405 2.394722,0 0.890444,0.0452 1.770172,0.22472 2.660804,0.26608 0.708857,0.0329 1.419021,0 2.128642,0 h 4.523366 2.926889 c 0.62127,0 1.24566,0.0736 1.86256,0 0.36371,-0.0434 0.7156,-0.15401 1.06432,-0.26608 0.8818,-0.28338 1.76072,-0.57977 2.6608,-0.79824 0.35543,-0.0863 0.71417,-0.16039 1.06432,-0.26608 0.35107,-0.10596 0.69826,-0.24454 1.06433,-0.26609 0.17711,-0.0104 0.35474,0 0.53215,0 h 0.79825 c 0.22745,0 0.45609,-0.0175 0.67522,-0.0785 0.21913,-0.0609 0.42985,-0.15663 0.65518,-0.18761 0.26384,-0.0363 0.53192,0 0.79824,0 h 1.86256 0.26608 c 0.0446,0 0.0892,0.003 0.13358,0.007 0.0444,0.004 0.0906,0.009 0.1325,-0.007 0.0245,-0.009 0.0463,-0.0248 0.0639,-0.0442 0.0175,-0.0194 0.0309,-0.0423 0.0408,-0.0665 0.0198,-0.0484 0.0258,-0.10117 0.0312,-0.15318 0.005,-0.052 0.0107,-0.10477 0.0294,-0.15362 0.009,-0.0244 0.022,-0.0477 0.0388,-0.0677 0.0168,-0.02 0.0379,-0.0367 0.062,-0.0469 0.0225,-0.01 0.0472,-0.0132 0.0716,-0.0126 0.0244,6.4e-4 0.0486,0.006 0.0719,0.0128 0.0466,0.0145 0.0899,0.038 0.13505,0.0566 0.0451,0.0186 0.094,0.0326 0.14245,0.0263 0.0242,-0.003 0.048,-0.0114 0.0679,-0.0256 0.0199,-0.0142 0.0358,-0.0343 0.0433,-0.0576 0.007,-0.0219 0.006,-0.0455 0.003,-0.0682 -0.004,-0.0226 -0.0109,-0.0446 -0.0168,-0.0668 -0.006,-0.0222 -0.0105,-0.045 -0.01,-0.0679 0.001,-0.0229 0.008,-0.0462 0.0237,-0.0632 0.0156,-0.0171 0.0383,-0.0266 0.0613,-0.0293 0.023,-0.003 0.0463,7.2e-4 0.0688,0.006 0.0225,0.005 0.0445,0.0128 0.0671,0.018 0.0226,0.005 0.0459,0.008 0.0689,0.005 0.0319,-0.004 0.0612,-0.0211 0.085,-0.0427 0.0238,-0.0216 0.0427,-0.0481 0.06,-0.0753 0.0173,-0.0272 0.0332,-0.0552 0.0522,-0.0812 0.019,-0.026 0.0413,-0.0501 0.0688,-0.0668 0.0391,-0.0237 0.0865,-0.031 0.13212,-0.0282 0.0457,0.003 0.0902,0.0151 0.13396,0.0282 0.0887,0.0266 0.17715,0.0572 0.26934,0.0657 0.0461,0.004 0.093,0.003 0.13812,-0.007 0.0452,-0.0102 0.0886,-0.0293 0.12471,-0.0583 0.0497,-0.0399 0.083,-0.0961 0.12064,-0.14754 0.0188,-0.0257 0.0391,-0.0506 0.063,-0.0717 0.0239,-0.0211 0.0517,-0.0383 0.0824,-0.0469 0.0467,-0.0131 0.097,-0.006 0.14316,0.009 0.0462,0.0149 0.0897,0.0369 0.13531,0.0536 0.0456,0.0166 0.0946,0.028 0.14254,0.0202 0.0239,-0.004 0.0473,-0.0126 0.067,-0.0267 0.0197,-0.0141 0.0357,-0.0337 0.0441,-0.0565 0.008,-0.0213 0.009,-0.0445 0.007,-0.067 -0.002,-0.0225 -0.008,-0.0446 -0.0128,-0.0667 -0.005,-0.0221 -0.009,-0.0445 -0.01,-0.0671 -1.7e-4,-0.0227 0.004,-0.0458 0.0159,-0.0652 0.0127,-0.0211 0.0334,-0.0366 0.0565,-0.0451 0.023,-0.008 0.0483,-0.0102 0.0727,-0.007 0.0488,0.006 0.0932,0.0299 0.13694,0.0523 0.25074,0.12802 0.52083,0.21805 0.79824,0.26608"
       id="path846"
       inkscape:connector-curvature="0"
       inkscape:path-effect="#path-effect848"
       inkscape:original-d="m 55.610788,219.03846 c 0.443466,0.26608 0.833134,0.65617 1.330402,0.79824 0.772253,0.22065 1.594869,0.19337 2.394723,0.26608 1.151673,0.1047 2.303817,0.21357 3.459046,0.26608 0.797417,0.0362 1.601949,-0.0933 2.394722,0 0.726374,0.0855 1.407208,0.41193 2.128642,0.53216 0.879232,0.14654 1.77346,0.18158 2.660803,0.26608 0.975239,0.0929 1.950353,0.18796 2.926885,0.26609 1.240906,0.0993 2.489866,0.11167 3.725124,0.26608 3.568552,0.44607 1.599986,0.59889 4.789445,0.79824 0.708168,0.0443 1.419095,0 2.128644,0 0.79824,0 1.59648,0 2.394723,0 0.79824,0 1.597586,-0.042 2.394722,0 0.890128,0.0469 1.770817,0.21663 2.660804,0.26608 0.708456,0.0394 1.419095,0 2.128642,0 1.507789,0 3.015577,0 4.523366,0 0.975628,0 1.951255,0 2.926889,0 0.62085,0 1.24425,0.0562 1.86256,0 0.36419,-0.0331 0.70733,-0.18675 1.06432,-0.26608 3.15289,-0.70064 -0.51963,0.2619 2.6608,-0.79824 0.34693,-0.11565 0.70955,-0.17739 1.06432,-0.26608 0.35478,-0.0887 0.70361,-0.20597 1.06433,-0.26609 0.17497,-0.0292 0.35477,0 0.53215,0 0.26609,0 0.53217,0 0.79825,0 1.22015,0 -0.28048,0.0561 1.3304,-0.26608 0.26091,-0.0522 0.53216,0 0.79824,0 0.62085,0 1.24171,0 1.86256,0 0.0887,0 0.17739,0 0.26608,0 0.0887,0 0.20337,0.0627 0.26608,0 0.14024,-0.14023 0.10107,-0.42214 0.26608,-0.53216 0.1476,-0.0984 0.3735,0.0793 0.53216,0 0.0793,-0.0397 -0.0627,-0.20336 0,-0.26608 0.0627,-0.0627 0.18675,0.0397 0.26608,0 0.11219,-0.0561 0.15389,-0.20998 0.26608,-0.26608 0.0793,-0.0397 0.17739,0 0.26608,0 0.17739,0 0.36388,0.0561 0.53217,0 0.11899,-0.0397 0.15389,-0.20998 0.26607,-0.26608 0.15866,-0.0793 0.40673,0.12543 0.53217,0 0.0627,-0.0627 -0.0627,-0.20336 0,-0.26608 0.0627,-0.0627 0.17738,0 0.26608,0 0.51019,0 0.41194,-0.12021 0.79824,0.26608" />
    <text
       xml:space="preserve"
       style="font-style:normal;font-variant:normal;font-weight:normal;font-stretch:normal;font-size:2.82222223px;line-height:1.25;font-family:monospace;-inkscape-font-specification:monospace;letter-spacing:0px;word-spacing:0px;fill:#000000;fill-opacity:1;stroke:none;stroke-width:0.26458332"
       x="80.090179"
       y="217.1759"
       id="text852"><tspan
         sodipodi:role="line"
         id="tspan850"
         x="80.090179"
         y="217.1759"
         style="stroke-width:0.26458332">$\Gamma_2(T)$</tspan></text>
    <text
       xml:space="preserve"
       style="font-style:normal;font-variant:normal;font-weight:normal;font-stretch:normal;font-size:2.82222223px;line-height:1.25;font-family:monospace;-inkscape-font-specification:monospace;letter-spacing:0px;word-spacing:0px;fill:#000000;fill-opacity:1;stroke:none;stroke-width:0.26458332"
       x="125.58992"
       y="233.93896"
       id="text856"><tspan
         sodipodi:role="line"
         id="tspan854"
         x="125.58992"
         y="233.93896"
         style="stroke-width:0.26458332">$\Gamma_3(T)$</tspan></text>
    <text
       xml:space="preserve"
       style="font-style:normal;font-variant:normal;font-weight:normal;font-stretch:normal;font-size:2.82222223px;line-height:1.25;font-family:monospace;-inkscape-font-specification:monospace;letter-spacing:0px;word-spacing:0px;fill:#000000;fill-opacity:1;stroke:none;stroke-width:0.26458332"
       x="48.42662"
       y="234.7372"
       id="text860"><tspan
         sodipodi:role="line"
         id="tspan858"
         x="48.42662"
         y="234.7372"
         style="stroke-width:0.26458332">$\Gamma_1(T)$</tspan></text>
    <text
       xml:space="preserve"
       style="font-style:normal;font-variant:normal;font-weight:normal;font-stretch:normal;font-size:2.82222223px;line-height:1.25;font-family:monospace;-inkscape-font-specification:monospace;letter-spacing:0px;word-spacing:0px;fill:#000000;fill-opacity:1;stroke:none;stroke-width:0.26458332"
       x="81.420578"
       y="254.9593"
       id="text864"><tspan
         sodipodi:role="line"
         id="tspan862"
         x="81.420578"
         y="254.9593"
         style="stroke-width:0.26458332">$C$</tspan></text>
  </g>
</svg>
